<?xml version="1.0" encoding="UTF-8" standalone="no"?>
<!DOCTYPE svg PUBLIC "-//W3C//DTD SVG 1.1//EN"
 "http://www.w3.org/Graphics/SVG/1.1/DTD/svg11.dtd">
<!-- Generated by graphviz version 3.0.0 (0)
 -->
<!-- Pages: 1 -->
<svg width="605pt" height="225pt"
 viewBox="0.00 0.00 604.77 225.00" xmlns="http://www.w3.org/2000/svg" xmlns:xlink="http://www.w3.org/1999/xlink">
<g id="graph0" class="graph" transform="scale(1 1) rotate(0) translate(4 221)">
<polygon fill="white" stroke="transparent" points="-4,4 -4,-221 600.77,-221 600.77,4 -4,4"/>
<g id="clust1" class="cluster">
<title>cluster_exchange</title>
<polygon fill="none" stroke="transparent" points="125.19,-48 125.19,-123 242.58,-123 242.58,-48 125.19,-48"/>
<text text-anchor="middle" x="183.89" y="-55.8" font-family="monospace" font-size="14.00">type=topic</text>
</g>
<g id="clust2" class="cluster">
<title>cluster_queue_a</title>
<polygon fill="none" stroke="transparent" points="329.58,-132 329.58,-209 445.58,-209 445.58,-132 329.58,-132"/>
<text text-anchor="middle" x="387.58" y="-193.8" font-family="Helvetica Neue" font-size="14.00">Queues</text>
</g>
<g id="clust3" class="cluster">
<title>cluster_queue_b</title>
<polygon fill="none" stroke="transparent" points="329.58,-70 329.58,-124 445.58,-124 445.58,-70 329.58,-70"/>
</g>
<g id="clust4" class="cluster">
<title>cluster_queue_c</title>
<polygon fill="none" stroke="transparent" points="329.58,-8 329.58,-62 445.58,-62 445.58,-8 329.58,-8"/>
</g>
<!-- producer -->
<g id="node1" class="node">
<title>producer</title>
<ellipse fill="#f1f5f9" stroke="#94a3b8" cx="48.1" cy="-97" rx="48.19" ry="18"/>
<text text-anchor="middle" x="48.1" y="-93.3" font-family="Helvetica Neue" font-size="14.00">Producer</text>
</g>
<!-- exchange -->
<g id="node2" class="node">
<title>exchange</title>
<ellipse fill="#f1f5f9" stroke="#94a3b8" cx="183.89" cy="-97" rx="50.89" ry="18"/>
<text text-anchor="middle" x="183.89" y="-93.3" font-family="Helvetica Neue" font-size="14.00">Exchange</text>
</g>
<!-- producer&#45;&gt;exchange -->
<g id="edge1" class="edge">
<title>producer&#45;&gt;exchange</title>
<path fill="none" stroke="#64748b" d="M96.27,-97C104.81,-97 113.82,-97 122.68,-97"/>
<polygon fill="#64748b" stroke="#64748b" points="122.97,-100.5 132.97,-97 122.97,-93.5 122.97,-100.5"/>
</g>
<!-- queue_a -->
<g id="node3" class="node">
<title>queue_a</title>
<polygon fill="#f1f5f9" stroke="#94a3b8" points="337.58,-141 337.58,-177 437.58,-177 437.58,-141 337.58,-141"/>
<text text-anchor="middle" x="347.58" y="-155.3" font-family="Helvetica Neue" font-size="14.00"> </text>
<polyline fill="none" stroke="#94a3b8" points="357.58,-141 357.58,-177 "/>
<text text-anchor="middle" x="367.58" y="-155.3" font-family="Helvetica Neue" font-size="14.00"> </text>
<polyline fill="none" stroke="#94a3b8" points="377.58,-141 377.58,-177 "/>
<text text-anchor="middle" x="387.58" y="-155.3" font-family="Helvetica Neue" font-size="14.00"> </text>
<polyline fill="none" stroke="#94a3b8" points="397.58,-141 397.58,-177 "/>
<text text-anchor="middle" x="407.58" y="-155.3" font-family="Helvetica Neue" font-size="14.00"> </text>
<polyline fill="none" stroke="#94a3b8" points="417.58,-141 417.58,-177 "/>
<text text-anchor="middle" x="427.58" y="-155.3" font-family="Helvetica Neue" font-size="14.00"> </text>
</g>
<!-- exchange&#45;&gt;queue_a -->
<g id="edge2" class="edge">
<title>exchange&#45;&gt;queue_a</title>
<path fill="none" stroke="#64748b" d="M222.82,-108.66C252.32,-117.73 293.77,-130.47 327.59,-140.87"/>
<polygon fill="#64748b" stroke="#64748b" points="326.78,-144.28 337.36,-143.87 328.83,-137.59 326.78,-144.28"/>
<text text-anchor="middle" x="286.08" y="-140.8" font-family="monospace" font-size="14.00">#</text>
</g>
<!-- queue_b -->
<g id="node4" class="node">
<title>queue_b</title>
<polygon fill="#f1f5f9" stroke="#94a3b8" points="337.58,-79 337.58,-115 437.58,-115 437.58,-79 337.58,-79"/>
<text text-anchor="middle" x="347.58" y="-93.3" font-family="Helvetica Neue" font-size="14.00"> </text>
<polyline fill="none" stroke="#94a3b8" points="357.58,-79 357.58,-115 "/>
<text text-anchor="middle" x="367.58" y="-93.3" font-family="Helvetica Neue" font-size="14.00"> </text>
<polyline fill="none" stroke="#94a3b8" points="377.58,-79 377.58,-115 "/>
<text text-anchor="middle" x="387.58" y="-93.3" font-family="Helvetica Neue" font-size="14.00"> </text>
<polyline fill="none" stroke="#94a3b8" points="397.58,-79 397.58,-115 "/>
<text text-anchor="middle" x="407.58" y="-93.3" font-family="Helvetica Neue" font-size="14.00"> </text>
<polyline fill="none" stroke="#94a3b8" points="417.58,-79 417.58,-115 "/>
<text text-anchor="middle" x="427.58" y="-93.3" font-family="Helvetica Neue" font-size="14.00"> </text>
</g>
<!-- exchange&#45;&gt;queue_b -->
<g id="edge4" class="edge">
<title>exchange&#45;&gt;queue_b</title>
<path fill="none" stroke="#64748b" d="M234.74,-97C262.71,-97 297.78,-97 327.16,-97"/>
<polygon fill="#64748b" stroke="#64748b" points="327.3,-100.5 337.3,-97 327.3,-93.5 327.3,-100.5"/>
<text text-anchor="middle" x="286.08" y="-100.8" font-family="monospace" font-size="14.00">worker.*</text>
</g>
<!-- queue_c -->
<g id="node5" class="node">
<title>queue_c</title>
<polygon fill="#f1f5f9" stroke="#94a3b8" points="337.58,-17 337.58,-53 437.58,-53 437.58,-17 337.58,-17"/>
<text text-anchor="middle" x="347.58" y="-31.3" font-family="Helvetica Neue" font-size="14.00"> </text>
<polyline fill="none" stroke="#94a3b8" points="357.58,-17 357.58,-53 "/>
<text text-anchor="middle" x="367.58" y="-31.3" font-family="Helvetica Neue" font-size="14.00"> </text>
<polyline fill="none" stroke="#94a3b8" points="377.58,-17 377.58,-53 "/>
<text text-anchor="middle" x="387.58" y="-31.3" font-family="Helvetica Neue" font-size="14.00"> </text>
<polyline fill="none" stroke="#94a3b8" points="397.58,-17 397.58,-53 "/>
<text text-anchor="middle" x="407.58" y="-31.3" font-family="Helvetica Neue" font-size="14.00"> </text>
<polyline fill="none" stroke="#94a3b8" points="417.58,-17 417.58,-53 "/>
<text text-anchor="middle" x="427.58" y="-31.3" font-family="Helvetica Neue" font-size="14.00"> </text>
</g>
<!-- exchange&#45;&gt;queue_c -->
<g id="edge6" class="edge">
<title>exchange&#45;&gt;queue_c</title>
<path fill="none" stroke="#64748b" d="M222.82,-85.34C252.32,-76.27 293.77,-63.53 327.59,-53.13"/>
<polygon fill="#64748b" stroke="#64748b" points="328.83,-56.41 337.36,-50.13 326.78,-49.72 328.83,-56.41"/>
<text text-anchor="middle" x="286.08" y="-78.8" font-family="monospace" font-size="14.00">*.error</text>
</g>
<!-- consumer_a -->
<g id="node6" class="node">
<title>consumer_a</title>
<ellipse fill="#f1f5f9" stroke="#94a3b8" cx="535.68" cy="-159" rx="60.39" ry="18"/>
<text text-anchor="middle" x="535.68" y="-155.3" font-family="Helvetica Neue" font-size="14.00">Consumer A</text>
</g>
<!-- queue_a&#45;&gt;consumer_a -->
<g id="edge3" class="edge">
<title>queue_a&#45;&gt;consumer_a</title>
<path fill="none" stroke="#64748b" d="M437.64,-159C446.46,-159 455.82,-159 465.09,-159"/>
<polygon fill="#64748b" stroke="#64748b" points="465.1,-162.5 475.1,-159 465.1,-155.5 465.1,-162.5"/>
</g>
<!-- consumer_b -->
<g id="node7" class="node">
<title>consumer_b</title>
<ellipse fill="#f1f5f9" stroke="#94a3b8" cx="535.68" cy="-97" rx="61.19" ry="18"/>
<text text-anchor="middle" x="535.68" y="-93.3" font-family="Helvetica Neue" font-size="14.00">Consumer B</text>
</g>
<!-- queue_b&#45;&gt;consumer_b -->
<g id="edge5" class="edge">
<title>queue_b&#45;&gt;consumer_b</title>
<path fill="none" stroke="#64748b" d="M437.64,-97C446.19,-97 455.23,-97 464.23,-97"/>
<polygon fill="#64748b" stroke="#64748b" points="464.33,-100.5 474.33,-97 464.33,-93.5 464.33,-100.5"/>
</g>
<!-- consumer_c -->
<g id="node8" class="node">
<title>consumer_c</title>
<ellipse fill="#f1f5f9" stroke="#94a3b8" cx="535.68" cy="-35" rx="61.19" ry="18"/>
<text text-anchor="middle" x="535.68" y="-31.3" font-family="Helvetica Neue" font-size="14.00">Consumer C</text>
</g>
<!-- queue_c&#45;&gt;consumer_c -->
<g id="edge7" class="edge">
<title>queue_c&#45;&gt;consumer_c</title>
<path fill="none" stroke="#64748b" d="M437.64,-35C446.19,-35 455.23,-35 464.23,-35"/>
<polygon fill="#64748b" stroke="#64748b" points="464.33,-38.5 474.33,-35 464.33,-31.5 464.33,-38.5"/>
</g>
</g>
</svg>
