<?xml version="1.0" encoding="UTF-8" standalone="no"?>
<!DOCTYPE svg PUBLIC "-//W3C//DTD SVG 1.1//EN"
 "http://www.w3.org/Graphics/SVG/1.1/DTD/svg11.dtd">
<!-- Generated by graphviz version 3.0.0 (0)
 -->
<!-- Pages: 1 -->
<svg width="495pt" height="98pt"
 viewBox="0.00 0.00 495.07 98.00" xmlns="http://www.w3.org/2000/svg" xmlns:xlink="http://www.w3.org/1999/xlink">
<g id="graph0" class="graph" transform="scale(1 1) rotate(0) translate(4 94)">
<polygon fill="white" stroke="transparent" points="-4,4 -4,-94 491.07,-94 491.07,4 -4,4"/>
<!-- receiver -->
<g id="node1" class="node">
<title>receiver</title>
<ellipse fill="#f1f5f9" stroke="#94a3b8" cx="46.15" cy="-45" rx="46.29" ry="18"/>
<text text-anchor="middle" x="46.15" y="-41.3" font-family="Helvetica Neue" font-size="14.00">Receiver</text>
</g>
<!-- consumer_a -->
<g id="node2" class="node">
<title>consumer_a</title>
<ellipse fill="#f1f5f9" stroke="#94a3b8" cx="353.18" cy="-72" rx="133.78" ry="18"/>
<text text-anchor="middle" x="353.18" y="-68.3" font-family="monospace" font-size="14.00">announce_failed_tasks()</text>
</g>
<!-- receiver&#45;&gt;consumer_a -->
<g id="edge1" class="edge">
<title>receiver&#45;&gt;consumer_a</title>
<path fill="none" stroke="#64748b" d="M91.5,-48.93C128.06,-52.16 181.7,-56.91 230.84,-61.26"/>
<polygon fill="#64748b" stroke="#64748b" points="230.65,-64.76 240.92,-62.15 231.27,-57.78 230.65,-64.76"/>
<text text-anchor="middle" x="155.79" y="-61.8" font-family="monospace" font-size="14.00">task&#45;failed</text>
</g>
<!-- consumer_b -->
<g id="node3" class="node">
<title>consumer_b</title>
<ellipse fill="#f1f5f9" stroke="#94a3b8" cx="353.18" cy="-18" rx="80.69" ry="18"/>
<text text-anchor="middle" x="353.18" y="-14.3" font-family="monospace" font-size="14.00">state.event()</text>
</g>
<!-- receiver&#45;&gt;consumer_b -->
<g id="edge2" class="edge">
<title>receiver&#45;&gt;consumer_b</title>
<path fill="none" stroke="#64748b" d="M85.37,-35.47C93.55,-33.73 102.17,-32.11 110.29,-31 160.36,-24.15 216.72,-20.87 262.43,-19.31"/>
<polygon fill="#64748b" stroke="#64748b" points="262.73,-22.8 272.61,-18.99 262.51,-15.81 262.73,-22.8"/>
<text text-anchor="middle" x="155.79" y="-34.8" font-family="monospace" font-size="14.00">*</text>
</g>
</g>
</svg>
