<svg width="130" height="110" viewBox="0 -20 130 110" xmlns="http://www.w3.org/2000/svg">
  <style>
    #letters {
      fill: #24292e;
    }
    #underline {
      fill: #7c3aed;
    }

    @media (prefers-color-scheme: dark) {
      #letters {
        fill: #f0f4f8;
      }
      #underline {
        fill: #c4b5fd;
      }
    }
  </style>
  <g id="letters">
    <path d="M 33.452 14.931 L 14.063 72.743 L 0 72.743 L 25.604 0.016 L 41.868 0.016 L 67.507 72.743 L 53.445 72.743 L 34.02 14.931 L 33.452 14.931 Z" id="0"/>
    <path d="M 14.524 54.81 L 52.876 54.81 L 52.876 44.228 L 14.524 44.228 L 14.524 54.81 Z" id="1"/>
    <path d="M 90.27 72.743 L 77.095 72.743 L 77.095 0.016 L 104.368 0.016 Q 112.749 0.016 118.448 3.141 A 20.991 20.991 0 0 1 127.077 11.717 A 25.725 25.725 0 0 1 130 24.093 A 25.647 25.647 0 0 1 127.06 36.522 Q 124.112 41.955 118.359 45.062 A 29.504 29.504 0 0 1 104.19 48.169 L 86.115 48.169 L 86.115 37.338 L 102.415 37.338 Q 107.315 37.338 110.44 35.634 Q 113.565 33.929 115.075 30.946 A 14.978 14.978 0 0 0 116.584 24.093 A 14.758 14.758 0 0 0 115.075 17.274 A 10.59 10.59 0 0 0 110.423 12.676 Q 107.28 11.024 102.344 11.024 L 90.27 11.024 L 90.27 72.743 Z" id="2"/>
  </g>
  <g id="underline">
    <rect x="0" y="80" width="125" height="10"/>
  </g>
</svg>