<?xml version="1.0" encoding="UTF-8" standalone="no"?>
<!DOCTYPE svg PUBLIC "-//W3C//DTD SVG 1.1//EN"
 "http://www.w3.org/Graphics/SVG/1.1/DTD/svg11.dtd">
<!-- Generated by graphviz version 3.0.0 (0)
 -->
<!-- Pages: 1 -->
<svg width="540pt" height="271pt"
 viewBox="0.00 0.00 539.77 271.00" xmlns="http://www.w3.org/2000/svg" xmlns:xlink="http://www.w3.org/1999/xlink">
<g id="graph0" class="graph" transform="scale(1 1) rotate(0) translate(4 267)">
<polygon fill="white" stroke="transparent" points="-4,4 -4,-267 535.77,-267 535.77,4 -4,4"/>
<g id="clust1" class="cluster">
<title>cluster_exchange</title>
<polygon fill="none" stroke="transparent" points="125.19,-56 125.19,-146 248.58,-146 248.58,-56 125.19,-56"/>
<text text-anchor="middle" x="186.89" y="-78.8" font-family="monospace" font-size="14.00">name=celeryev</text>
<text text-anchor="middle" x="186.89" y="-63.8" font-family="monospace" font-size="14.00">type=topic</text>
</g>
<g id="clust2" class="cluster">
<title>cluster_queue_a</title>
<polygon fill="none" stroke="transparent" points="277.58,-178 277.58,-255 393.58,-255 393.58,-178 277.58,-178"/>
<text text-anchor="middle" x="335.58" y="-239.8" font-family="Helvetica Neue" font-size="14.00">Queue A</text>
</g>
<g id="clust3" class="cluster">
<title>cluster_queue_b</title>
<polygon fill="none" stroke="transparent" points="277.58,-93 277.58,-170 393.58,-170 393.58,-93 277.58,-93"/>
<text text-anchor="middle" x="335.58" y="-154.8" font-family="Helvetica Neue" font-size="14.00">Queue B</text>
</g>
<g id="clust4" class="cluster">
<title>cluster_queue_c</title>
<polygon fill="none" stroke="transparent" points="277.58,-8 277.58,-85 393.58,-85 393.58,-8 277.58,-8"/>
<text text-anchor="middle" x="335.58" y="-69.8" font-family="Helvetica Neue" font-size="14.00">Queue C</text>
</g>
<!-- producer -->
<g id="node1" class="node">
<title>producer</title>
<ellipse fill="#f1f5f9" stroke="#94a3b8" cx="48.1" cy="-120" rx="48.19" ry="18"/>
<text text-anchor="middle" x="48.1" y="-116.3" font-family="Helvetica Neue" font-size="14.00">Producer</text>
</g>
<!-- exchange -->
<g id="node2" class="node">
<title>exchange</title>
<ellipse fill="#f1f5f9" stroke="#94a3b8" cx="186.89" cy="-120" rx="50.89" ry="18"/>
<text text-anchor="middle" x="186.89" y="-116.3" font-family="Helvetica Neue" font-size="14.00">Exchange</text>
</g>
<!-- producer&#45;&gt;exchange -->
<g id="edge1" class="edge">
<title>producer&#45;&gt;exchange</title>
<path fill="none" stroke="#64748b" d="M96.55,-120C106.06,-120 116.17,-120 126.03,-120"/>
<polygon fill="#64748b" stroke="#64748b" points="126.19,-123.5 136.19,-120 126.19,-116.5 126.19,-123.5"/>
</g>
<!-- queue_a -->
<g id="node3" class="node">
<title>queue_a</title>
<polygon fill="#f1f5f9" stroke="#94a3b8" points="285.58,-187 285.58,-223 385.58,-223 385.58,-187 285.58,-187"/>
<text text-anchor="middle" x="295.58" y="-201.3" font-family="Helvetica Neue" font-size="14.00"> </text>
<polyline fill="none" stroke="#94a3b8" points="305.58,-187 305.58,-223 "/>
<text text-anchor="middle" x="315.58" y="-201.3" font-family="Helvetica Neue" font-size="14.00"> </text>
<polyline fill="none" stroke="#94a3b8" points="325.58,-187 325.58,-223 "/>
<text text-anchor="middle" x="335.58" y="-201.3" font-family="Helvetica Neue" font-size="14.00"> </text>
<polyline fill="none" stroke="#94a3b8" points="345.58,-187 345.58,-223 "/>
<text text-anchor="middle" x="355.58" y="-201.3" font-family="Helvetica Neue" font-size="14.00"> </text>
<polyline fill="none" stroke="#94a3b8" points="365.58,-187 365.58,-223 "/>
<text text-anchor="middle" x="375.58" y="-201.3" font-family="Helvetica Neue" font-size="14.00"> </text>
</g>
<!-- exchange&#45;&gt;queue_a -->
<g id="edge2" class="edge">
<title>exchange&#45;&gt;queue_a</title>
<path fill="none" stroke="#64748b" d="M213.23,-135.66C231.1,-146.6 255.66,-161.45 277.58,-174 282.11,-176.59 286.86,-179.26 291.62,-181.89"/>
<polygon fill="#64748b" stroke="#64748b" points="290.24,-185.13 300.69,-186.88 293.61,-179 290.24,-185.13"/>
<text text-anchor="middle" x="263.08" y="-169.8" font-family="monospace" font-size="14.00">#</text>
</g>
<!-- queue_b -->
<g id="node4" class="node">
<title>queue_b</title>
<polygon fill="#f1f5f9" stroke="#94a3b8" points="285.58,-102 285.58,-138 385.58,-138 385.58,-102 285.58,-102"/>
<text text-anchor="middle" x="295.58" y="-116.3" font-family="Helvetica Neue" font-size="14.00"> </text>
<polyline fill="none" stroke="#94a3b8" points="305.58,-102 305.58,-138 "/>
<text text-anchor="middle" x="315.58" y="-116.3" font-family="Helvetica Neue" font-size="14.00"> </text>
<polyline fill="none" stroke="#94a3b8" points="325.58,-102 325.58,-138 "/>
<text text-anchor="middle" x="335.58" y="-116.3" font-family="Helvetica Neue" font-size="14.00"> </text>
<polyline fill="none" stroke="#94a3b8" points="345.58,-102 345.58,-138 "/>
<text text-anchor="middle" x="355.58" y="-116.3" font-family="Helvetica Neue" font-size="14.00"> </text>
<polyline fill="none" stroke="#94a3b8" points="365.58,-102 365.58,-138 "/>
<text text-anchor="middle" x="375.58" y="-116.3" font-family="Helvetica Neue" font-size="14.00"> </text>
</g>
<!-- exchange&#45;&gt;queue_b -->
<g id="edge4" class="edge">
<title>exchange&#45;&gt;queue_b</title>
<path fill="none" stroke="#64748b" d="M237.96,-120C249.89,-120 262.74,-120 275.05,-120"/>
<polygon fill="#64748b" stroke="#64748b" points="275.23,-123.5 285.23,-120 275.23,-116.5 275.23,-123.5"/>
<text text-anchor="middle" x="263.08" y="-123.8" font-family="monospace" font-size="14.00">#</text>
</g>
<!-- queue_c -->
<g id="node5" class="node">
<title>queue_c</title>
<polygon fill="#f1f5f9" stroke="#94a3b8" points="285.58,-17 285.58,-53 385.58,-53 385.58,-17 285.58,-17"/>
<text text-anchor="middle" x="295.58" y="-31.3" font-family="Helvetica Neue" font-size="14.00"> </text>
<polyline fill="none" stroke="#94a3b8" points="305.58,-17 305.58,-53 "/>
<text text-anchor="middle" x="315.58" y="-31.3" font-family="Helvetica Neue" font-size="14.00"> </text>
<polyline fill="none" stroke="#94a3b8" points="325.58,-17 325.58,-53 "/>
<text text-anchor="middle" x="335.58" y="-31.3" font-family="Helvetica Neue" font-size="14.00"> </text>
<polyline fill="none" stroke="#94a3b8" points="345.58,-17 345.58,-53 "/>
<text text-anchor="middle" x="355.58" y="-31.3" font-family="Helvetica Neue" font-size="14.00"> </text>
<polyline fill="none" stroke="#94a3b8" points="365.58,-17 365.58,-53 "/>
<text text-anchor="middle" x="375.58" y="-31.3" font-family="Helvetica Neue" font-size="14.00"> </text>
</g>
<!-- exchange&#45;&gt;queue_c -->
<g id="edge6" class="edge">
<title>exchange&#45;&gt;queue_c</title>
<path fill="none" stroke="#64748b" d="M214.11,-104.8C236.52,-91.82 269.11,-72.94 294.75,-58.08"/>
<polygon fill="#64748b" stroke="#64748b" points="296.6,-61.06 303.49,-53.01 293.09,-55 296.6,-61.06"/>
<text text-anchor="middle" x="263.08" y="-80.8" font-family="monospace" font-size="14.00">#</text>
</g>
<!-- consumer_a -->
<g id="node6" class="node">
<title>consumer_a</title>
<ellipse fill="#f1f5f9" stroke="#94a3b8" cx="477.18" cy="-205" rx="53.89" ry="18"/>
<text text-anchor="middle" x="477.18" y="-201.3" font-family="Helvetica Neue" font-size="14.00">Receiver A</text>
</g>
<!-- queue_a&#45;&gt;consumer_a -->
<g id="edge3" class="edge">
<title>queue_a&#45;&gt;consumer_a</title>
<path fill="none" stroke="#64748b" d="M385.8,-205C394.58,-205 403.84,-205 412.95,-205"/>
<polygon fill="#64748b" stroke="#64748b" points="413.14,-208.5 423.14,-205 413.14,-201.5 413.14,-208.5"/>
</g>
<!-- consumer_b -->
<g id="node7" class="node">
<title>consumer_b</title>
<ellipse fill="#f1f5f9" stroke="#94a3b8" cx="477.18" cy="-120" rx="54.69" ry="18"/>
<text text-anchor="middle" x="477.18" y="-116.3" font-family="Helvetica Neue" font-size="14.00">Receiver B</text>
</g>
<!-- queue_b&#45;&gt;consumer_b -->
<g id="edge5" class="edge">
<title>queue_b&#45;&gt;consumer_b</title>
<path fill="none" stroke="#64748b" d="M385.8,-120C394.26,-120 403.17,-120 411.96,-120"/>
<polygon fill="#64748b" stroke="#64748b" points="412.18,-123.5 422.18,-120 412.18,-116.5 412.18,-123.5"/>
</g>
<!-- consumer_c -->
<g id="node8" class="node">
<title>consumer_c</title>
<ellipse fill="#f1f5f9" stroke="#94a3b8" cx="477.18" cy="-35" rx="54.69" ry="18"/>
<text text-anchor="middle" x="477.18" y="-31.3" font-family="Helvetica Neue" font-size="14.00">Receiver C</text>
</g>
<!-- queue_c&#45;&gt;consumer_c -->
<g id="edge7" class="edge">
<title>queue_c&#45;&gt;consumer_c</title>
<path fill="none" stroke="#64748b" d="M385.8,-35C394.26,-35 403.17,-35 411.96,-35"/>
<polygon fill="#64748b" stroke="#64748b" points="412.18,-38.5 422.18,-35 412.18,-31.5 412.18,-38.5"/>
</g>
</g>
</svg>
