<?xml version="1.0" encoding="UTF-8" standalone="no"?>
<!DOCTYPE svg PUBLIC "-//W3C//DTD SVG 1.1//EN"
 "http://www.w3.org/Graphics/SVG/1.1/DTD/svg11.dtd">
<!-- Generated by graphviz version 3.0.0 (0)
 -->
<!-- Pages: 1 -->
<svg width="540pt" height="152pt"
 viewBox="0.00 0.00 539.77 152.00" xmlns="http://www.w3.org/2000/svg" xmlns:xlink="http://www.w3.org/1999/xlink">
<g id="graph0" class="graph" transform="scale(1 1) rotate(0) translate(4 148)">
<polygon fill="white" stroke="transparent" points="-4,4 -4,-148 535.77,-148 535.77,4 -4,4"/>
<g id="clust1" class="cluster">
<title>cluster_exchange</title>
<polygon fill="none" stroke="transparent" points="125.19,-8 125.19,-98 248.58,-98 248.58,-8 125.19,-8"/>
<text text-anchor="middle" x="186.89" y="-30.8" font-family="monospace" font-size="14.00">name=celeryev</text>
<text text-anchor="middle" x="186.89" y="-15.8" font-family="monospace" font-size="14.00">type=topic</text>
</g>
<g id="clust2" class="cluster">
<title>cluster_queue_a</title>
<polygon fill="none" stroke="transparent" points="277.58,-45 277.58,-122 393.58,-122 393.58,-45 277.58,-45"/>
<text text-anchor="middle" x="335.58" y="-106.8" font-family="Helvetica Neue" font-size="14.00">Queue A</text>
</g>
<!-- producer -->
<g id="node1" class="node">
<title>producer</title>
<ellipse fill="#f1f5f9" stroke="#94a3b8" cx="48.1" cy="-72" rx="48.19" ry="18"/>
<text text-anchor="middle" x="48.1" y="-68.3" font-family="Helvetica Neue" font-size="14.00">Producer</text>
</g>
<!-- exchange -->
<g id="node2" class="node">
<title>exchange</title>
<ellipse fill="#f1f5f9" stroke="#94a3b8" cx="186.89" cy="-72" rx="50.89" ry="18"/>
<text text-anchor="middle" x="186.89" y="-68.3" font-family="Helvetica Neue" font-size="14.00">Exchange</text>
</g>
<!-- producer&#45;&gt;exchange -->
<g id="edge1" class="edge">
<title>producer&#45;&gt;exchange</title>
<path fill="none" stroke="#64748b" d="M96.55,-72C106.06,-72 116.17,-72 126.03,-72"/>
<polygon fill="#64748b" stroke="#64748b" points="126.19,-75.5 136.19,-72 126.19,-68.5 126.19,-75.5"/>
</g>
<!-- queue_a -->
<g id="node3" class="node">
<title>queue_a</title>
<polygon fill="#f1f5f9" stroke="#94a3b8" points="285.58,-54 285.58,-90 385.58,-90 385.58,-54 285.58,-54"/>
<text text-anchor="middle" x="295.58" y="-68.3" font-family="Helvetica Neue" font-size="14.00"> </text>
<polyline fill="none" stroke="#94a3b8" points="305.58,-54 305.58,-90 "/>
<text text-anchor="middle" x="315.58" y="-68.3" font-family="Helvetica Neue" font-size="14.00"> </text>
<polyline fill="none" stroke="#94a3b8" points="325.58,-54 325.58,-90 "/>
<text text-anchor="middle" x="335.58" y="-68.3" font-family="Helvetica Neue" font-size="14.00"> </text>
<polyline fill="none" stroke="#94a3b8" points="345.58,-54 345.58,-90 "/>
<text text-anchor="middle" x="355.58" y="-68.3" font-family="Helvetica Neue" font-size="14.00"> </text>
<polyline fill="none" stroke="#94a3b8" points="365.58,-54 365.58,-90 "/>
<text text-anchor="middle" x="375.58" y="-68.3" font-family="Helvetica Neue" font-size="14.00"> </text>
</g>
<!-- exchange&#45;&gt;queue_a -->
<g id="edge2" class="edge">
<title>exchange&#45;&gt;queue_a</title>
<path fill="none" stroke="#64748b" d="M237.96,-72C249.89,-72 262.74,-72 275.05,-72"/>
<polygon fill="#64748b" stroke="#64748b" points="275.23,-75.5 285.23,-72 275.23,-68.5 275.23,-75.5"/>
<text text-anchor="middle" x="263.08" y="-75.8" font-family="monospace" font-size="14.00">#</text>
</g>
<!-- consumer_a -->
<g id="node4" class="node">
<title>consumer_a</title>
<ellipse fill="#f1f5f9" stroke="#94a3b8" cx="477.18" cy="-126" rx="53.89" ry="18"/>
<text text-anchor="middle" x="477.18" y="-122.3" font-family="Helvetica Neue" font-size="14.00">Receiver A</text>
</g>
<!-- queue_a&#45;&gt;consumer_a -->
<g id="edge3" class="edge">
<title>queue_a&#45;&gt;consumer_a</title>
<path fill="none" stroke="#64748b" d="M383.45,-90.13C398.92,-96.11 416.07,-102.75 431.38,-108.67"/>
<polygon fill="#64748b" stroke="#64748b" points="430.54,-112.1 441.13,-112.44 433.07,-105.57 430.54,-112.1"/>
</g>
<!-- consumer_b -->
<g id="node5" class="node">
<title>consumer_b</title>
<ellipse fill="#f1f5f9" stroke="#94a3b8" cx="477.18" cy="-72" rx="54.69" ry="18"/>
<text text-anchor="middle" x="477.18" y="-68.3" font-family="Helvetica Neue" font-size="14.00">Receiver B</text>
</g>
<!-- queue_a&#45;&gt;consumer_b -->
<g id="edge4" class="edge">
<title>queue_a&#45;&gt;consumer_b</title>
<path fill="none" stroke="#64748b" d="M385.8,-72C394.26,-72 403.17,-72 411.96,-72"/>
<polygon fill="#64748b" stroke="#64748b" points="412.18,-75.5 422.18,-72 412.18,-68.5 412.18,-75.5"/>
</g>
<!-- consumer_c -->
<g id="node6" class="node">
<title>consumer_c</title>
<ellipse fill="#f1f5f9" stroke="#94a3b8" cx="477.18" cy="-18" rx="54.69" ry="18"/>
<text text-anchor="middle" x="477.18" y="-14.3" font-family="Helvetica Neue" font-size="14.00">Receiver C</text>
</g>
<!-- queue_a&#45;&gt;consumer_c -->
<g id="edge5" class="edge">
<title>queue_a&#45;&gt;consumer_c</title>
<path fill="none" stroke="#64748b" d="M383.45,-53.87C398.92,-47.89 416.07,-41.25 431.38,-35.33"/>
<polygon fill="#64748b" stroke="#64748b" points="433.07,-38.43 441.13,-31.56 430.54,-31.9 433.07,-38.43"/>
</g>
</g>
</svg>
